<svg
  preserveAspectRatio="none"
  xmlns="http://www.w3.org/2000/svg"
  viewBox="0 0 1440 320"
  aria-hidden="true"
  focusable="false"
>
  <path
    fill="#fff"
    fill-opacity="1"
    d="M0,256L48,234.7C96,213,192,171,288,170.7C384,171,480,213,576,240C672,267,768,277,864,272C960,267,1056,245,1152,245.3C1248,245,1344,267,1392,277.3L1440,288L1440,320L1392,320C1344,320,1248,320,1152,320C1056,320,960,320,864,320C768,320,672,320,576,320C480,320,384,320,288,320C192,320,96,320,48,320L0,320Z"
  ></path>
</svg>